<svg width="1280" height="990" viewBox="0 0 1280 990" fill="none" xmlns="http://www.w3.org/2000/svg">
<g opacity="0.08">
<line x1="55.7314" y1="1.58423" x2="55.7314" y2="1052.72" stroke="#292928" stroke-width="2"/>
<line x1="158.629" y1="1.58325" x2="158.629" y2="1052.72" stroke="#292928" stroke-width="2"/>
<line x1="261.526" y1="1.58325" x2="261.526" y2="1052.72" stroke="#292928" stroke-width="2"/>
<line x1="364.423" y1="1.58325" x2="364.423" y2="1052.72" stroke="#292928" stroke-width="2"/>
<line x1="467.32" y1="1.58325" x2="467.32" y2="1052.72" stroke="#292928" stroke-width="2"/>
<line x1="570.218" y1="1.58325" x2="570.218" y2="1052.72" stroke="#292928" stroke-width="2"/>
<line x1="673.115" y1="1.58325" x2="673.115" y2="1052.72" stroke="#292928" stroke-width="2"/>
<line x1="776.013" y1="1.58325" x2="776.013" y2="1052.72" stroke="#292928" stroke-width="2"/>
<line x1="878.91" y1="1.58325" x2="878.91" y2="1052.72" stroke="#292928" stroke-width="2"/>
<line x1="981.807" y1="1.58325" x2="981.807" y2="1052.72" stroke="#292928" stroke-width="2"/>
<line x1="1084.7" y1="1.58325" x2="1084.7" y2="1052.72" stroke="#292928" stroke-width="2"/>
<line x1="1187.6" y1="1.58325" x2="1187.6" y2="1052.72" stroke="#292928" stroke-width="2"/>
<line x1="1280" y1="373.805" x2="-45" y2="373.805" stroke="#292928" stroke-width="2"/>
<line x1="1280" y1="476.703" x2="-45" y2="476.703" stroke="#292928" stroke-width="2"/>
<line x1="1280" y1="579.599" x2="-45" y2="579.599" stroke="#292928" stroke-width="2"/>
<line x1="1280" y1="682.497" x2="-45" y2="682.497" stroke="#292928" stroke-width="2"/>
<line x1="1280" y1="785.394" x2="-45" y2="785.394" stroke="#292928" stroke-width="2"/>
<line x1="1280" y1="888.291" x2="-45" y2="888.291" stroke="#292928" stroke-width="2"/>
</g>
<rect width="1238" height="989" transform="matrix(-1 0 0 1 1277 1)" fill="url(#paint0_linear_489_6659)"/>
<rect width="622" height="1229" transform="matrix(-4.37114e-08 1 1 4.37114e-08 -0.999756 0)" fill="url(#paint1_linear_489_6659)"/>
<defs>
<linearGradient id="paint0_linear_489_6659" x1="1.75539e-05" y1="484.752" x2="1237.92" y2="500.881" gradientUnits="userSpaceOnUse">
<stop stop-color="white"/>
<stop offset="1" stop-color="white" stop-opacity="0"/>
</linearGradient>
<linearGradient id="paint1_linear_489_6659" x1="8.81948e-06" y1="602.386" x2="622.046" y2="605.663" gradientUnits="userSpaceOnUse">
<stop stop-color="white"/>
<stop offset="1" stop-color="white" stop-opacity="0"/>
</linearGradient>
</defs>
</svg>
