<?xml version="1.0" encoding="UTF-8" standalone="no"?>
<svg
   xmlns:dc="http://purl.org/dc/elements/1.1/"
   xmlns:cc="http://creativecommons.org/ns#"
   xmlns:rdf="http://www.w3.org/1999/02/22-rdf-syntax-ns#"
   xmlns:svg="http://www.w3.org/2000/svg"
   xmlns="http://www.w3.org/2000/svg"
   xmlns:sodipodi="http://sodipodi.sourceforge.net/DTD/sodipodi-0.dtd"
   xmlns:inkscape="http://www.inkscape.org/namespaces/inkscape"
   width="210mm"
   height="297mm"
   viewBox="0 0 210 297"
   version="1.1"
   id="svg8"
   inkscape:version="1.0.2-2 (e86c870879, 2021-01-15)"
   sodipodi:docname="iconErco.svg"
   inkscape:export-filename="C:\Users\Jewar21\Desktop\iconErco.png"
   inkscape:export-xdpi="96"
   inkscape:export-ydpi="96">
  <defs
     id="defs2" />
  <sodipodi:namedview
     id="base"
     pagecolor="#ffffff"
     bordercolor="#666666"
     borderopacity="1.0"
     inkscape:pageopacity="0.0"
     inkscape:pageshadow="2"
     inkscape:zoom="0.24748737"
     inkscape:cx="301.50311"
     inkscape:cy="1017.6133"
     inkscape:document-units="mm"
     inkscape:current-layer="g380"
     inkscape:document-rotation="0"
     showgrid="true"
     inkscape:snap-grids="false"
     inkscape:window-width="1343"
     inkscape:window-height="1030"
     inkscape:window-x="224"
     inkscape:window-y="0"
     inkscape:window-maximized="0">
    <inkscape:grid
       type="xygrid"
       id="grid389" />
  </sodipodi:namedview>
  <metadata
     id="metadata5">
    <rdf:RDF>
      <cc:Work
         rdf:about="">
        <dc:format>image/svg+xml</dc:format>
        <dc:type
           rdf:resource="http://purl.org/dc/dcmitype/StillImage" />
        <dc:title />
      </cc:Work>
    </rdf:RDF>
  </metadata>
  <g
     inkscape:label="Capa 1"
     inkscape:groupmode="layer"
     id="layer1">
    <g
       style="fill:none"
       id="g380"
       transform="matrix(0.26458333,0,0,0.26458333,-0.52070429,133.41741)">
      <g
         id="g397">
        <path
           style="fill:#575756;fill-opacity:1;stroke-width:0.264583"
           d="m 101.38138,113.28781 c -0.32422,-0.15648 -0.65772,-0.49948 -0.74111,-0.76222 -0.17232,-0.54294 1.90802,-9.72197 2.31817,-10.22839 0.19831,-0.24485 1.65722,-0.33073 5.61841,-0.33073 6.90782,0 6.7409,-0.13094 5.64934,4.43177 l -0.5855,2.4474 h -4.9594 c -2.72766,0 -5.01194,0.0893 -5.07618,0.19844 -0.0642,0.10914 -0.19655,0.57066 -0.29403,1.0256 -0.33958,1.58479 0.0185,1.68638 5.94454,1.68638 h 5.26257 l 0.25586,-0.99219 c 0.14073,-0.5457 0.63363,-2.57493 1.09535,-4.50939 0.67215,-2.81614 0.95836,-3.59508 1.43588,-3.90797 0.48761,-0.3195 1.60801,-0.37774 6.14175,-0.31926 l 5.54533,0.0715 -0.21849,0.84251 -0.21848,0.84251 -4.5188,0.0835 c -4.33651,0.0802 -4.53851,0.10789 -5.00725,0.68743 -0.27644,0.34179 -0.92637,2.43741 -1.49741,4.82824 l -1.00897,4.22435 -7.27604,-0.0175 c -4.61236,-0.0111 -7.49185,-0.12167 -7.86554,-0.30202 z m 10.33236,-6.75728 c 0.0642,-0.10914 0.19011,-0.55562 0.27972,-0.99218 0.27842,-1.3563 -0.0834,-1.57736 -2.75059,-1.68049 -3.9457,-0.15256 -4.46154,0.06 -4.88046,2.01122 l -0.18462,0.85989 h 3.70958 c 2.04026,0 3.76213,-0.0893 3.82637,-0.19844 z m 17.17122,6.66573 c -0.32589,-0.22826 -0.58804,-0.69092 -0.58804,-1.03782 0,-0.95024 2.0879,-9.44162 2.41991,-9.84167 0.2235,-0.2693 1.51393,-0.3503 5.58085,-0.3503 h 5.29013 l -0.15954,0.59532 c -0.0877,0.32742 -0.16117,0.74414 -0.16315,0.92604 -0.003,0.24861 -0.92027,0.33073 -3.69533,0.33073 -2.2466,0 -3.95659,0.12068 -4.36836,0.30829 -0.7326,0.3338 -1.04609,1.14639 -1.86862,4.84349 -0.64251,2.88795 -0.78552,2.81608 5.42289,2.72519 l 4.90268,-0.0718 1.07699,-4.32534 c 0.59234,-2.37894 1.21843,-4.55183 1.3913,-4.82864 0.29178,-0.46721 0.69077,-0.50331 5.56274,-0.50331 4.74856,0 5.29012,0.0461 5.6863,0.48386 0.24083,0.26612 0.43788,0.7284 0.43788,1.02729 0,0.87701 -2.11724,9.41553 -2.42737,9.78921 -0.22355,0.26936 -2.77378,0.34131 -12.09824,0.34131 -10.26526,0 -11.89211,-0.054 -12.40302,-0.41188 z m 22.56848,-2.06376 c 0.28491,-0.39015 1.71432,-5.66101 1.71432,-6.32145 0,-0.0885 -0.1871,-0.34804 -0.41578,-0.57672 -0.32132,-0.32132 -0.99751,-0.41489 -2.97656,-0.41187 -3.61099,0.005 -3.72906,0.0906 -4.58924,3.30925 -0.84918,3.17751 -0.90181,3.97624 -0.28665,4.35086 0.27341,0.1665 1.6367,0.25314 3.32909,0.21158 2.43707,-0.0598 2.91978,-0.14392 3.22482,-0.56165 z"
           id="path382"
           sodipodi:nodetypes="csssscscsscssssccccsscscccssscsccssscccsssscsssssssccssscsscs"
           transform="matrix(3.7795276,0,0,3.7795276,1.9680162,-504.25478)" />
        <g
           id="g387">
          <path
             d="m 372.32077,-101.16414 c -6.16997,-5.6791 -14.16353,-6.91021 -29.03704,-4.47106 -8.5702,1.40518 -10.44786,1.51402 -13.84638,0.80152 -11.01008,-2.30941 -19.39647,-10.5376 -22.89951,-22.46668 -1.32986,-4.52872 -1.25058,-4.62279 6.22042,-7.45729 15.98352,-6.06293 34.87904,-0.5406 45.60801,13.32957 1.78395,2.30797 5.36989,6.16781 7.96473,8.57777 5.08878,4.72082 7.03131,7.41477 8.63507,11.95539 0.56222,1.592226 0.95505,2.882801 0.87576,2.867664 -0.0793,-0.01586 -1.66142,-1.426804 -3.52106,-3.136884 z"
             fill="#51ad32"
             id="path232"
             style="stroke-width:3.60395" />
          <path
             d="m 305.06382,-54.964717 -2.0975,-0.960453 2.44708,-0.06379 c 3.71928,-0.09659 9.2117,-2.998127 12.16334,-6.423683 3.74451,-4.347447 5.91048,-8.251248 8.83689,-15.94136 3.60395,-9.470465 5.0131,-11.954309 8.71436,-15.36617 4.88695,-4.50494 11.08575,-7.143037 17.66657,-7.520367 3.17508,-0.18164 7.01689,0.0688 9.26576,0.60402 l 3.84902,0.914686 0.21263,3.712071 c 0.30634,5.311504 -0.97667,10.563182 -4.07967,16.748285 -5.88165,11.711762 -16.56737,19.223839 -30.96155,21.771112 -2.23085,0.394633 -6.11951,1.354725 -8.64228,2.133539 -5.36989,1.65962 -14.17074,1.858198 -17.37465,0.39211 z"
             fill="#a1c52a"
             id="path234"
             style="stroke-width:3.60395" />
          <path
             d="m 304.09075,-64.492844 c -8.24223,-5.502874 -14.40139,-14.748092 -16.5061,-24.765276 -1.9209,-9.146109 -0.79287,-17.18689 3.72649,-26.57518 1.48122,-3.07706 3.07777,-7.40144 3.54989,-9.60922 0.84333,-3.93263 5.72308,-12.42066 7.13943,-12.42066 0.41806,0 0.42166,0.45662 0.0108,1.2239 -1.58934,2.97398 -1.66142,7.76436 -0.18019,12.56374 1.88486,6.11663 4.40402,10.33794 10.54155,17.68351 5.82759,6.972568 7.53587,10.197384 8.46929,16.01236 1.30463,8.091593 -1.16047,16.417442 -7.00608,23.688415 -4.3788,5.443769 -4.75722,5.529183 -9.74509,2.198411 z"
             fill="#dddc25"
             id="path236"
             style="stroke-width:3.60395" />
        </g>
      </g>
    </g>
  </g>
</svg>
